<?xml version="1.0" encoding="iso-8859-1"?>
<!-- Uploaded to: SVG Repo, www.svgrepo.com, Generator: SVG Repo Mixer Tools -->
<svg version="1.1" id="Layer_1" xmlns="http://www.w3.org/2000/svg" xmlns:xlink="http://www.w3.org/1999/xlink" 
	 viewBox="0 0 512 512" xml:space="preserve">
<path style="fill:#445764;" d="M256.018,311.57c26.467,0,47.977,21.51,47.977,47.976c0,26.467-21.51,47.976-47.977,47.976
	s-47.976-21.51-47.976-47.976C208.041,333.079,229.551,311.57,256.018,311.57z"/>
<path style="fill:#7E8488;" d="M375.958,271.591v175.913H136.077V271.591H375.958z M303.994,359.546
	c0-26.467-21.51-47.976-47.977-47.976c-26.467,0-47.976,21.51-47.976,47.976c0,26.467,21.509,47.976,47.976,47.976
	C282.485,407.523,303.994,386.013,303.994,359.546z"/>
<polygon style="fill:#445764;" points="303.994,167.642 256.018,231.61 208.041,167.642 "/>
<path style="fill:#C3C7C9;" d="M431.93,167.642v335.833H80.105V167.642v-47.976H431.93V167.642z M375.958,447.503V271.591H136.077
	v175.913h239.881V447.503z M256.018,231.61l47.977-63.969h-95.953L256.018,231.61z"/>
<rect x="144.074" y="39.705" style="fill:#00ABD5;" width="223.893" height="47.978"/>
<path style="fill:#9DA1A4;" d="M431.93,7.721v111.944H80.105V7.721H431.93z M367.962,87.682V39.705H144.073v47.977H367.962z"/>
<rect x="144.074" y="39.705" style="fill:#0089D5;" width="223.893" height="23.989"/>
<rect x="80.105" y="119.663" style="fill:#7A7E80;" width="351.831" height="47.978"/>
<path d="M71.965,0v512h368.071V0H71.965z M423.79,159.921h-87.83v16.245h87.83v319.588H88.21V176.167h87.83v-16.245H88.21v-31.73
	h335.58V159.921z M423.79,111.944H88.21V16.245h335.58V111.944z"/>
<path d="M376.068,31.985H135.932v64.221h240.134V31.985H376.068z M359.822,79.961H152.178V48.23h207.644v31.73H359.822z"/>
<g>
	<rect x="103.949" y="32.111" style="fill:#FFFFFF;" width="16.245" height="63.963"/>
	<rect x="391.805" y="32.111" style="fill:#FFFFFF;" width="16.245" height="63.963"/>
</g>
<path d="M127.937,456.027h256.126V263.87H127.937V456.027z M144.183,280.115h223.635v159.668H144.183V280.115z"/>
<path d="M255.999,303.85c-30.933,0-56.098,25.166-56.098,56.098s25.166,56.098,56.098,56.098s56.1-25.166,56.1-56.098
	S286.933,303.85,255.999,303.85z M255.999,399.802c-21.976,0-39.853-17.879-39.853-39.853c0-21.975,17.879-39.853,39.853-39.853
	c21.976,0,39.854,17.879,39.854,39.853C295.854,381.924,277.975,399.802,255.999,399.802z"/>
<path style="fill:#FFFFFF;" d="M255.999,367.818c-4.339,0-7.869-3.531-7.869-7.869c0-4.339,3.531-7.869,7.869-7.869v-16.245
	c-13.296,0-24.115,10.818-24.115,24.115c0,13.296,10.818,24.115,24.115,24.115c13.297,0,24.116-10.818,24.116-24.115H263.87
	C263.87,364.288,260.339,367.818,255.999,367.818z"/>
<rect x="160.049" y="295.849" width="15.992" height="16.245"/>
<rect x="335.964" y="295.849" style="fill:#FFFFFF;" width="15.992" height="16.245"/>
<rect x="335.964" y="407.801" width="15.992" height="16.245"/>
<rect x="160.049" y="407.801" style="fill:#FFFFFF;" width="15.992" height="16.245"/>
<path d="M320.222,159.921H191.778l64.221,85.628L320.222,159.921z M287.731,176.167l-31.731,42.307l-31.73-42.307H287.731z"/>
</svg>